<svg width="53" height="56" viewBox="0 0 53 56" fill="none" xmlns="http://www.w3.org/2000/svg">
<path d="M29.1361 21.3333C28.3856 21.3333 27.757 21.0773 27.2502 20.5653C26.7416 20.0551 26.4873 19.4222 26.4873 18.6667V13.3333H21.1899C20.4394 13.3333 19.8108 13.0782 19.304 12.568C18.7954 12.056 18.5411 11.4222 18.5411 10.6667C18.5411 9.91111 18.7954 9.27733 19.304 8.76533C19.8108 8.25511 20.4394 8 21.1899 8H26.4873V2.66667C26.4873 1.91111 26.7416 1.27733 27.2502 0.765333C27.757 0.255111 28.3856 0 29.1361 0C29.8865 0 30.5161 0.255111 31.0246 0.765333C31.5314 1.27733 31.7848 1.91111 31.7848 2.66667V8H37.0823C37.8327 8 38.4623 8.25511 38.9708 8.76533C39.4776 9.27733 39.731 9.91111 39.731 10.6667C39.731 11.4222 39.4776 12.056 38.9708 12.568C38.4623 13.0782 37.8327 13.3333 37.0823 13.3333H31.7848V18.6667C31.7848 19.4222 31.5314 20.0551 31.0246 20.5653C30.5161 21.0773 29.8865 21.3333 29.1361 21.3333ZM15.8924 56C14.4356 56 13.1889 55.4782 12.1524 54.4347C11.1141 53.3893 10.5949 52.1333 10.5949 50.6667C10.5949 49.2 11.1141 47.944 12.1524 46.8987C13.1889 45.8551 14.4356 45.3333 15.8924 45.3333C17.3492 45.3333 18.5959 45.8551 19.6324 46.8987C20.6707 47.944 21.1899 49.2 21.1899 50.6667C21.1899 52.1333 20.6707 53.3893 19.6324 54.4347C18.5959 55.4782 17.3492 56 15.8924 56ZM42.3797 56C40.9229 56 39.6763 55.4782 38.6397 54.4347C37.6014 53.3893 37.0823 52.1333 37.0823 50.6667C37.0823 49.2 37.6014 47.944 38.6397 46.8987C39.6763 45.8551 40.9229 45.3333 42.3797 45.3333C43.8365 45.3333 45.0841 45.8551 46.1224 46.8987C47.1589 47.944 47.6772 49.2 47.6772 50.6667C47.6772 52.1333 47.1589 53.3893 46.1224 54.4347C45.0841 55.4782 43.8365 56 42.3797 56ZM15.8924 42.6667C13.8617 42.6667 12.3281 41.7884 11.2915 40.032C10.2532 38.2773 10.2418 36.5333 11.2571 34.8L14.8329 28.2667L5.29747 8H2.64873C1.89826 8 1.26963 7.744 0.762835 7.232C0.254278 6.72178 0 6.08889 0 5.33333C0 4.57778 0.254278 3.944 0.762835 3.432C1.26963 2.92178 1.89826 2.66667 2.64873 2.66667H7.01914C7.50474 2.66667 7.96827 2.8 8.40973 3.06667C8.85118 3.33333 9.18228 3.71111 9.403 4.2L19.9317 26.6667H38.5391L48.0745 9.33333C48.2952 8.93333 48.6043 8.61067 49.0016 8.36533C49.3989 8.12178 49.8403 8 50.3259 8C51.3413 8 52.1032 8.43289 52.6118 9.29867C53.1186 10.1662 53.1292 11.0444 52.6436 11.9333L43.1743 29.2C42.6887 30.0889 42.0372 30.7778 41.2196 31.2667C40.4038 31.7556 39.5103 32 38.5391 32H18.806L15.8924 37.3333H45.0285C45.7789 37.3333 46.4076 37.5884 46.9144 38.0987C47.4229 38.6107 47.6772 39.2444 47.6772 40C47.6772 40.7556 47.4229 41.3884 46.9144 41.8987C46.4076 42.4107 45.7789 42.6667 45.0285 42.6667H15.8924Z" fill="#E67E22"/>
</svg>
