<svg width="196" height="36" viewBox="0 0 196 36" fill="none" xmlns="http://www.w3.org/2000/svg">
<path d="M17.5 13.125C17.0868 13.125 16.7407 12.985 16.4616 12.705C16.1816 12.426 16.0416 12.0798 16.0416 11.6666V8.74998H13.125C12.7118 8.74998 12.3657 8.61047 12.0866 8.33144C11.8066 8.05144 11.6666 7.70484 11.6666 7.29165C11.6666 6.87845 11.8066 6.53186 12.0866 6.25186C12.3657 5.97283 12.7118 5.83331 13.125 5.83331H16.0416V2.91665C16.0416 2.50345 16.1816 2.15685 16.4616 1.87685C16.7407 1.59783 17.0868 1.45831 17.5 1.45831C17.9132 1.45831 18.2598 1.59783 18.5398 1.87685C18.8188 2.15685 18.9583 2.50345 18.9583 2.91665V5.83331H21.875C22.2882 5.83331 22.6348 5.97283 22.9148 6.25186C23.1938 6.53186 23.3333 6.87845 23.3333 7.29165C23.3333 7.70484 23.1938 8.05144 22.9148 8.33144C22.6348 8.61047 22.2882 8.74998 21.875 8.74998H18.9583V11.6666C18.9583 12.0798 18.8188 12.426 18.5398 12.705C18.2598 12.985 17.9132 13.125 17.5 13.125ZM10.2083 32.0833C9.40623 32.0833 8.71984 31.798 8.14915 31.2273C7.57748 30.6556 7.29165 29.9687 7.29165 29.1666C7.29165 28.3646 7.57748 27.6777 8.14915 27.106C8.71984 26.5353 9.40623 26.25 10.2083 26.25C11.0104 26.25 11.6968 26.5353 12.2675 27.106C12.8391 27.6777 13.125 28.3646 13.125 29.1666C13.125 29.9687 12.8391 30.6556 12.2675 31.2273C11.6968 31.798 11.0104 32.0833 10.2083 32.0833ZM24.7916 32.0833C23.9896 32.0833 23.3032 31.798 22.7325 31.2273C22.1608 30.6556 21.875 29.9687 21.875 29.1666C21.875 28.3646 22.1608 27.6777 22.7325 27.106C23.3032 26.5353 23.9896 26.25 24.7916 26.25C25.5937 26.25 26.2806 26.5353 26.8523 27.106C27.423 27.6777 27.7083 28.3646 27.7083 29.1666C27.7083 29.9687 27.423 30.6556 26.8523 31.2273C26.2806 31.798 25.5937 32.0833 24.7916 32.0833ZM10.2083 24.7916C9.09026 24.7916 8.24588 24.3114 7.67519 23.3508C7.10352 22.3912 7.0972 21.4375 7.65623 20.4896L9.62498 16.9166L4.37498 5.83331H2.91665C2.50345 5.83331 2.15734 5.69331 1.87831 5.41331C1.59831 5.13429 1.45831 4.78817 1.45831 4.37498C1.45831 3.96179 1.59831 3.61519 1.87831 3.33519C2.15734 3.05616 2.50345 2.91665 2.91665 2.91665H5.3229C5.59026 2.91665 5.84547 2.98956 6.08852 3.1354C6.33158 3.28123 6.51387 3.48783 6.6354 3.75519L12.4323 16.0416H22.6771L27.9271 6.56248C28.0486 6.34373 28.2187 6.16727 28.4375 6.0331C28.6562 5.89991 28.8993 5.83331 29.1666 5.83331C29.7257 5.83331 30.1452 6.07005 30.4252 6.54352C30.7042 7.01797 30.7101 7.49824 30.4427 7.98435L25.2291 17.4271C24.9618 17.9132 24.603 18.2899 24.1529 18.5573C23.7037 18.8246 23.2118 18.9583 22.6771 18.9583H11.8125L10.2083 21.875H26.25C26.6632 21.875 27.0093 22.0145 27.2883 22.2935C27.5683 22.5735 27.7083 22.9201 27.7083 23.3333C27.7083 23.7465 27.5683 24.0926 27.2883 24.3716C27.0093 24.6516 26.6632 24.7916 26.25 24.7916H10.2083Z" fill="#E67E22"/>
<path d="M49.456 26.168C47.872 26.168 46.416 25.8 45.088 25.064C43.776 24.328 42.728 23.304 41.944 21.992C41.176 20.664 40.792 19.176 40.792 17.528C40.792 15.88 41.176 14.4 41.944 13.088C42.728 11.776 43.776 10.752 45.088 10.016C46.416 9.28 47.872 8.912 49.456 8.912C51.04 8.912 52.488 9.28 53.8 10.016C55.128 10.752 56.168 11.776 56.92 13.088C57.688 14.4 58.072 15.88 58.072 17.528C58.072 19.176 57.688 20.664 56.92 21.992C56.152 23.304 55.112 24.328 53.8 25.064C52.488 25.8 51.04 26.168 49.456 26.168ZM49.456 22.424C50.8 22.424 51.872 21.976 52.672 21.08C53.488 20.184 53.896 19 53.896 17.528C53.896 16.04 53.488 14.856 52.672 13.976C51.872 13.08 50.8 12.632 49.456 12.632C48.096 12.632 47.008 13.072 46.192 13.952C45.392 14.832 44.992 16.024 44.992 17.528C44.992 19.016 45.392 20.208 46.192 21.104C47.008 21.984 48.096 22.424 49.456 22.424ZM68.5152 12.464C70.0832 12.464 71.3312 12.976 72.2592 14C73.2032 15.008 73.6752 16.4 73.6752 18.176V26H69.5952V18.728C69.5952 17.832 69.3632 17.136 68.8992 16.64C68.4352 16.144 67.8112 15.896 67.0272 15.896C66.2432 15.896 65.6192 16.144 65.1552 16.64C64.6912 17.136 64.4592 17.832 64.4592 18.728V26H60.3552V12.608H64.4592V14.384C64.8752 13.792 65.4352 13.328 66.1392 12.992C66.8432 12.64 67.6352 12.464 68.5152 12.464ZM80.6311 8.24V26H76.5271V8.24H80.6311ZM85.6692 11.216C84.9492 11.216 84.3572 11.008 83.8932 10.592C83.4452 10.16 83.2212 9.632 83.2212 9.008C83.2212 8.368 83.4452 7.84 83.8932 7.424C84.3572 6.992 84.9492 6.776 85.6692 6.776C86.3732 6.776 86.9492 6.992 87.3972 7.424C87.8612 7.84 88.0932 8.368 88.0932 9.008C88.0932 9.632 87.8612 10.16 87.3972 10.592C86.9492 11.008 86.3732 11.216 85.6692 11.216ZM87.7092 12.608V26H83.6052V12.608H87.7092ZM98.8433 12.464C100.411 12.464 101.659 12.976 102.587 14C103.531 15.008 104.003 16.4 104.003 18.176V26H99.9233V18.728C99.9233 17.832 99.6913 17.136 99.2273 16.64C98.7633 16.144 98.1393 15.896 97.3553 15.896C96.5713 15.896 95.9473 16.144 95.4833 16.64C95.0193 17.136 94.7873 17.832 94.7873 18.728V26H90.6833V12.608H94.7873V14.384C95.2033 13.792 95.7633 13.328 96.4673 12.992C97.1713 12.64 97.9633 12.464 98.8433 12.464ZM119.479 19.088C119.479 19.472 119.455 19.872 119.407 20.288H110.119C110.183 21.12 110.447 21.76 110.911 22.208C111.391 22.64 111.975 22.856 112.663 22.856C113.687 22.856 114.399 22.424 114.799 21.56H119.167C118.943 22.44 118.535 23.232 117.943 23.936C117.367 24.64 116.639 25.192 115.759 25.592C114.879 25.992 113.895 26.192 112.807 26.192C111.495 26.192 110.327 25.912 109.303 25.352C108.279 24.792 107.479 23.992 106.903 22.952C106.327 21.912 106.039 20.696 106.039 19.304C106.039 17.912 106.319 16.696 106.879 15.656C107.455 14.616 108.255 13.816 109.279 13.256C110.303 12.696 111.479 12.416 112.807 12.416C114.103 12.416 115.255 12.688 116.263 13.232C117.271 13.776 118.055 14.552 118.615 15.56C119.191 16.568 119.479 17.744 119.479 19.088ZM115.279 18.008C115.279 17.304 115.039 16.744 114.559 16.328C114.079 15.912 113.479 15.704 112.759 15.704C112.071 15.704 111.487 15.904 111.007 16.304C110.543 16.704 110.255 17.272 110.143 18.008H115.279Z" fill="white"/>
<path d="M136.93 17.36C137.906 17.568 138.69 18.056 139.282 18.824C139.874 19.576 140.17 20.44 140.17 21.416C140.17 22.824 139.674 23.944 138.682 24.776C137.706 25.592 136.338 26 134.578 26H126.73V9.152H134.314C136.026 9.152 137.362 9.544 138.322 10.328C139.298 11.112 139.786 12.176 139.786 13.52C139.786 14.512 139.522 15.336 138.994 15.992C138.482 16.648 137.794 17.104 136.93 17.36ZM130.834 15.968H133.522C134.194 15.968 134.706 15.824 135.058 15.536C135.426 15.232 135.61 14.792 135.61 14.216C135.61 13.64 135.426 13.2 135.058 12.896C134.706 12.592 134.194 12.44 133.522 12.44H130.834V15.968ZM133.858 22.688C134.546 22.688 135.074 22.536 135.442 22.232C135.826 21.912 136.018 21.456 136.018 20.864C136.018 20.272 135.818 19.808 135.418 19.472C135.034 19.136 134.498 18.968 133.81 18.968H130.834V22.688H133.858ZM141.735 19.28C141.735 17.904 141.991 16.696 142.503 15.656C143.031 14.616 143.743 13.816 144.639 13.256C145.535 12.696 146.535 12.416 147.639 12.416C148.583 12.416 149.407 12.608 150.111 12.992C150.831 13.376 151.383 13.88 151.767 14.504V12.608H155.871V26H151.767V24.104C151.367 24.728 150.807 25.232 150.087 25.616C149.383 26 148.559 26.192 147.615 26.192C146.527 26.192 145.535 25.912 144.639 25.352C143.743 24.776 143.031 23.968 142.503 22.928C141.991 21.872 141.735 20.656 141.735 19.28ZM151.767 19.304C151.767 18.28 151.479 17.472 150.903 16.88C150.343 16.288 149.655 15.992 148.839 15.992C148.023 15.992 147.327 16.288 146.751 16.88C146.191 17.456 145.911 18.256 145.911 19.28C145.911 20.304 146.191 21.12 146.751 21.728C147.327 22.32 148.023 22.616 148.839 22.616C149.655 22.616 150.343 22.32 150.903 21.728C151.479 21.136 151.767 20.328 151.767 19.304ZM162.68 22.616H168.488V26H158.096V22.736L163.664 15.992H158.144V12.608H168.368V15.872L162.68 22.616ZM169.93 19.28C169.93 17.904 170.186 16.696 170.698 15.656C171.226 14.616 171.938 13.816 172.834 13.256C173.73 12.696 174.73 12.416 175.834 12.416C176.778 12.416 177.602 12.608 178.306 12.992C179.026 13.376 179.578 13.88 179.962 14.504V12.608H184.066V26H179.962V24.104C179.562 24.728 179.002 25.232 178.282 25.616C177.578 26 176.754 26.192 175.81 26.192C174.722 26.192 173.73 25.912 172.834 25.352C171.938 24.776 171.226 23.968 170.698 22.928C170.186 21.872 169.93 20.656 169.93 19.28ZM179.962 19.304C179.962 18.28 179.674 17.472 179.098 16.88C178.538 16.288 177.85 15.992 177.034 15.992C176.218 15.992 175.522 16.288 174.946 16.88C174.386 17.456 174.106 18.256 174.106 19.28C174.106 20.304 174.386 21.12 174.946 21.728C175.522 22.32 176.218 22.616 177.034 22.616C177.85 22.616 178.538 22.32 179.098 21.728C179.674 21.136 179.962 20.328 179.962 19.304ZM191.139 14.84C191.619 14.104 192.219 13.528 192.939 13.112C193.659 12.68 194.459 12.464 195.339 12.464V16.808H194.211C193.187 16.808 192.419 17.032 191.907 17.48C191.395 17.912 191.139 18.68 191.139 19.784V26H187.035V12.608H191.139V14.84Z" fill="#E67E22"/>
</svg>
